# xmcd
#
# Track frame offsets: 
#        150
#        27384
#        48947
#        67478
#        82533
#        95765
#        119179
#        142606
#        157088
#        175415
#        194681
#        219583
#        242389
#        268493
#        292191
#
# Disc length: 4099 seconds
#
# Revision: 1
# Processed by: cddbd v1.5.2PL0 Copyright (c) Steve Scherf et al.
# Submitted via: ExactAudioCopyFreeDBPlugin 1.0
#
DISCID=ed10010f
DTITLE=Stare Dobre Malzenstwo - Maszeruj z chamem
DYEAR=2011
DGENRE=Blues
TTITLE0=Skoro swit
TTITLE1=Maszeruj z chamem
TTITLE2=Blues nocy bieszczadzkie
TTITLE3=Zacisnieta piesc rozy
TTITLE4=To ja
TTITLE5=Srebrny pociag
TTITLE6=Chcialby miec serce
TTITLE7=Czym jestem
TTITLE8=Mialem tylko jedna twarz
TTITLE9=A ty slonce snij
TTITLE10=Jagodowe wzgórze
TTITLE11=Czulosc
TTITLE12=Cukier i sól
TTITLE13=Tesknota boli
TTITLE14=Jak owad
EXTD=
EXTT0=
EXTT1=
EXTT2=
EXTT3=
EXTT4=
EXTT5=
EXTT6=
EXTT7=
EXTT8=
EXTT9=
EXTT10=
EXTT11=
EXTT12=
EXTT13=
EXTT14=
PLAYORDER=
